<svg id="Capa_3" data-name="Capa 3" xmlns="http://www.w3.org/2000/svg" viewBox="0 0 772.97 375.33"><title>Logo</title><path d="M549.5,438.5c-1-46-18-46-18-46,8-10,15-25,15-25,12-29-1-38-1-38s-22-10-35,11-22,87-22,87c-1-29,1-39,1-39,4-26,8-121,8-121,1-51-7-51-7-51-22-3-27,29-27,29-2,40,2,101,2,123s9,87,9,87c1,31-19,70-19,70-7,14-12,7-12,7-11-33-14-114-14-114s1-38,2-47-2-10-2-10c-5-3-21-2-21-2-9,1-7-1-7-1,10-17,1-25,1-25-23-16-32,10-32,10-6,24,21,25,21,25-11,21-27.5,29.5-27.5,29.5s5-29-5-52-30-17-30-17c-6,3-10-1-10-1-15-7-28,16-28,16-18.5,30.5-7.5,84.5-7.5,84.5,5,41,25,50,25,50,20,8,33-14,33-14,16-21,22-62,22-62,17-9,33-33,33-33l19,1c0,16-1,51-1,51s-6,63,8,98,31,15,31,15c15-23,24-65,24-65,1,16,5,15,5,15a10.53,10.53,0,0,0,11-3c-4-23-1-61-1-61,8-10,25-14,25-14,14,3,24,36,24,36,12,44,30,41,30,41,13,0,16-11,16-11-3,3-9,6-9,6C556.5,488.5,549.5,438.5,549.5,438.5ZM320,476c-45.55-75.25-7.76-138.74-7-140C289.51,406.5,360.5,403.5,360.5,403.5,345.5,483.5,320,476,320,476Zm41-77s-23,11-36-32c0,0-6-26,6-35,0,0,25-6,30,30C361,362,364,387,361,399Zm27-67s11-3,14,7c0,0,2,4-4,21C398,360,380,349,388,332Zm90.5-49.5s0-44,7-56c0,0,4-8,6-3,0,0,5,25,3,58s-6,86-6,86a81.2,81.2,0,0,1-2,17S479.5,313.5,478.5,282.5ZM526,371s-10,28-33,43c0,0,8-47,17-66s18-16,18-16S536,341,526,371Z" transform="translate(-49.89 -164.86)"/><path d="M322,184l-7.5,2.5s-44,30-51,129c0,0-5,77-1,118,0,0,1,36-18,41,0,0-25-11-33-55,0,0-8-45-9-56,0,0-10,45-24,75,0,0-8,22-20,29,0,0-3,1-8-26l-40-171s-10-47-27-58c0,0-16-9-30,0,0,0-7,4-1.5,16.5,0,0-2-17,10-14,0,0,16-3,26,46l41,181s7,38,24,32c0,0,21,5,46-83,0,0,10,107,49,87,0,0,21-10,17-55,0,0-6-108,15-171C280,252,296,204,322,184Z" transform="translate(-49.89 -164.86)"/><ellipse cx="619.11" cy="102.64" rx="14.5" ry="13"/><path d="M817.52,289.82l-52,3.52c7.94-35.39,16.17-82,14-115.84,0,0,1-16-17-12s-22,46-22,46-6.06,41.95-9.27,84.17L693.8,298.2a5,5,0,1,0,.68,10l36-2.44c-1,16.16-1.55,31.88-1,44.76,0,0-1,30,2,50,0,0-24,74-47,66,0,0-22-35-15-135v-7A17.49,17.49,0,0,0,650,324s-22,125,30,146c0,0,28.5,17.5,52.5-62.5,0,0,25,78,67,60,0,0,22-10,12-47,0,0,0,51-25,44,0,0-28-1-31-67l-3-53s5-16.83,10.67-41l55-3.73a5,5,0,0,0-.68-10Zm-66,36.68s0-8.85.26-22.2l7.59-.52A152.56,152.56,0,0,1,751.5,326.5Zm10.43-32.91-9.94.67c.8-30.87,2.91-76.14,8.51-99.76,0,0,8-35,16-20,0,0,6.5,29.5-13,112C763.5,286.5,762.94,289.3,761.93,293.59Z" transform="translate(-49.89 -164.86)"/></svg>